<?xml version="1.0" encoding="utf-8"?>
<svg xmlns="http://www.w3.org/2000/svg" viewBox="0 0 500 500" xmlns:bx="https://boxy-svg.com" width="500px" height="500px"><defs><bx:export><bx:file format="svg" path="darkMoon.svg"/></bx:export></defs><path d="M 299.046 332.914 C 274.762 332.914 255.077 313.229 255.077 288.946 L 255.077 186.356 C 255.077 162.072 274.762 142.387 299.046 142.387 L 365.729 142.387 C 384.614 142.387 399.927 157.7 399.927 176.584 L 399.927 298.716 C 399.927 317.601 384.614 332.914 365.729 332.914 L 299.046 332.914 Z M 299.046 313.374 L 365.729 313.374 C 373.822 313.374 380.386 306.809 380.386 298.716 L 380.386 176.584 C 380.386 168.492 373.822 161.928 365.729 161.928 L 299.046 161.928 C 285.555 161.928 274.618 172.864 274.618 186.356 L 274.618 288.946 C 274.618 302.437 285.555 313.374 299.046 313.374 Z" style="stroke-width: 1;" id="object-1"/><path d="M 259.966 284.406 L 26.189 284.406 C 23.471 284.406 21.313 282.273 21.313 279.691 L 21.313 195.61 C 21.313 193.03 23.47 190.896 26.189 190.896 L 259.966 190.896 C 265.362 190.896 269.736 186.522 269.736 181.125 C 269.736 175.728 265.362 171.354 259.966 171.354 L 26.189 171.354 C 12.726 171.354 1.772 182.187 1.772 195.61 L 1.772 279.691 C 1.772 293.113 12.726 303.947 26.189 303.947 L 259.966 303.947 C 265.362 303.947 269.736 299.573 269.736 294.177 C 269.736 288.781 265.362 284.406 259.966 284.406 Z M 457.328 247.422 L 481.755 247.422 C 487.15 247.422 491.525 243.048 491.525 237.652 C 491.525 232.255 487.15 227.88 481.755 227.88 L 457.328 227.88 C 451.931 227.88 447.556 232.255 447.556 237.652 C 447.556 243.048 451.931 247.422 457.328 247.422 Z M 454.451 187.578 L 471.726 170.304 C 475.541 166.487 475.541 160.302 471.726 156.487 C 467.911 152.67 461.724 152.67 457.909 156.487 L 440.634 173.761 C 436.819 177.577 436.819 183.763 440.634 187.578 C 444.45 191.394 450.636 191.394 454.451 187.578 Z M 471.724 304.995 L 454.449 287.721 C 450.633 283.905 444.448 283.905 440.631 287.721 C 436.815 291.536 436.815 297.722 440.631 301.539 L 457.905 318.813 C 461.722 322.628 467.909 322.628 471.724 318.813 C 475.54 314.997 475.54 308.811 471.724 304.995 Z" style="stroke-width: 1;" id="object-0"/></svg>